<svg aria-hidden="true" style="position: absolute; width: 0; height: 0; overflow: hidden;" version="1.1" xmlns="http://www.w3.org/2000/svg" xmlns:xlink="http://www.w3.org/1999/xlink">
<defs>
<symbol id="icon-in" viewBox="0 0 32 32">
<path fill="#4d5ae5" style="fill: var(--color1, #4d5ae5)" d="M32 16c0 4.418-1.791 8.418-4.686 11.314s-6.895 4.686-11.314 4.686c-4.418 0-8.418-1.791-11.314-4.686s-4.686-6.895-4.686-11.314c0-4.418 1.791-8.418 4.686-11.314s6.895-4.686 11.314-4.686c4.418 0 8.418 1.791 11.314 4.686s4.686 6.895 4.686 11.314z"></path>
<path fill="#f4f4fd" style="fill: var(--color2, #f4f4fd)" d="M25.595 25.6v-0.001h0.005v-7.042c0-3.445-0.742-6.098-4.769-6.098-1.936 0-3.235 1.062-3.766 2.070h-0.056v-1.748h-3.818v12.818h3.976v-6.347c0-1.671 0.317-3.287 2.386-3.287 2.039 0 2.070 1.907 2.070 3.394v6.241h3.972z"></path>
<path fill="#f4f4fd" style="fill: var(--color2, #f4f4fd)" d="M6.717 12.782h3.981v12.818h-3.981v-12.818z"></path>
<path fill="#f4f4fd" style="fill: var(--color2, #f4f4fd)" d="M8.706 6.4c-1.273 0-2.306 1.033-2.306 2.306s1.033 2.327 2.306 2.327 2.306-1.054 2.306-2.327c-0.001-1.273-1.034-2.306-2.306-2.306v0z"></path>
</symbol>
<symbol id="icon-facebok" viewBox="0 0 32 32">
<path fill="#4d5ae5" style="fill: var(--color1, #4d5ae5)" d="M32 16c0 4.418-1.791 8.418-4.686 11.314s-6.895 4.686-11.314 4.686c-4.418 0-8.418-1.791-11.314-4.686s-4.686-6.895-4.686-11.314c0-4.418 1.791-8.418 4.686-11.314s6.895-4.686 11.314-4.686c4.418 0 8.418 1.791 11.314 4.686s4.686 6.895 4.686 11.314z"></path>
<path fill="#f4f4fd" style="fill: var(--color2, #f4f4fd)" d="M18.132 11.725h1.169v-2.035c-0.202-0.028-0.895-0.090-1.702-0.090-1.685 0-2.839 1.060-2.839 3.008v1.792h-1.859v2.275h1.859v5.725h2.28v-5.724h1.784l0.283-2.275h-2.068v-1.567c0.001-0.658 0.178-1.108 1.094-1.108z"></path>
</symbol>
<symbol id="icon-twiter" viewBox="0 0 32 32">
<path fill="#4d5ae5" style="fill: var(--color1, #4d5ae5)" d="M32 16c0 4.418-1.791 8.418-4.686 11.314s-6.895 4.686-11.314 4.686c-4.418 0-8.418-1.791-11.314-4.686s-4.686-6.895-4.686-11.314c0-4.418 1.791-8.418 4.686-11.314s6.895-4.686 11.314-4.686c4.418 0 8.418 1.791 11.314 4.686s4.686 6.895 4.686 11.314z"></path>
<path fill="#f4f4fd" style="fill: var(--color2, #f4f4fd)" d="M22.4 12.031c-0.476 0.209-0.983 0.347-1.512 0.414 0.544-0.325 0.959-0.835 1.154-1.45-0.507 0.302-1.067 0.516-1.664 0.635-0.482-0.513-1.168-0.83-1.917-0.83-1.453 0-2.622 1.179-2.622 2.625 0 0.208 0.018 0.408 0.061 0.598-2.182-0.106-4.112-1.152-5.409-2.745-0.226 0.393-0.359 0.842-0.359 1.326 0 0.909 0.468 1.714 1.166 2.181-0.422-0.008-0.835-0.13-1.186-0.323 0 0.008 0 0.018 0 0.029 0 1.275 0.91 2.334 2.102 2.578-0.214 0.058-0.446 0.086-0.688 0.086-0.168 0-0.338-0.010-0.497-0.045 0.34 1.039 1.305 1.803 2.452 1.828-0.893 0.698-2.026 1.119-3.254 1.119-0.215 0-0.422-0.010-0.628-0.036 1.162 0.75 2.54 1.178 4.026 1.178 4.829 0 7.469-4 7.469-7.467 0-0.116-0.004-0.228-0.010-0.339 0.521-0.37 0.958-0.831 1.315-1.362z"></path>
</symbol>
<symbol id="icon-instagram" viewBox="0 0 32 32">
<path fill="#4d5ae5" style="fill: var(--color1, #4d5ae5)" d="M32 16c0 4.418-1.791 8.418-4.686 11.314s-6.895 4.686-11.314 4.686c-4.418 0-8.418-1.791-11.314-4.686s-4.686-6.895-4.686-11.314c0-4.418 1.791-8.418 4.686-11.314s6.895-4.686 11.314-4.686c4.418 0 8.418 1.791 11.314 4.686s4.686 6.895 4.686 11.314z"></path>
<path fill="#f4f4fd" style="fill: var(--color2, #f4f4fd)" d="M25.581 12.045c-0.045-1.020-0.21-1.722-0.446-2.329-0.244-0.645-0.619-1.223-1.11-1.703-0.48-0.488-1.061-0.867-1.699-1.106-0.611-0.236-1.309-0.401-2.329-0.446-1.028-0.049-1.354-0.060-3.961-0.060s-2.933 0.011-3.957 0.056c-1.020 0.045-1.722 0.21-2.329 0.446-0.645 0.244-1.223 0.619-1.703 1.11-0.488 0.48-0.866 1.061-1.106 1.699-0.236 0.611-0.401 1.309-0.446 2.329-0.049 1.028-0.060 1.354-0.060 3.961s0.011 2.933 0.056 3.957c0.045 1.020 0.21 1.722 0.446 2.329 0.244 0.645 0.623 1.223 1.11 1.703 0.48 0.488 1.061 0.866 1.699 1.106 0.611 0.236 1.309 0.401 2.329 0.446 1.024 0.045 1.35 0.056 3.957 0.056s2.933-0.011 3.957-0.056c1.020-0.045 1.722-0.21 2.329-0.446 1.29-0.499 2.31-1.519 2.809-2.809 0.236-0.611 0.401-1.309 0.446-2.329 0.045-1.024 0.056-1.35 0.056-3.957s-0.004-2.933-0.049-3.957zM23.852 19.884c-0.041 0.938-0.199 1.444-0.33 1.782-0.323 0.836-0.986 1.5-1.823 1.823-0.338 0.131-0.848 0.289-1.782 0.33-1.013 0.045-1.316 0.056-3.878 0.056s-2.869-0.011-3.878-0.056c-0.938-0.041-1.444-0.199-1.782-0.33-0.416-0.154-0.795-0.398-1.103-0.716-0.319-0.311-0.563-0.686-0.716-1.103-0.131-0.338-0.289-0.848-0.33-1.782-0.045-1.013-0.056-1.317-0.056-3.878s0.011-2.869 0.056-3.878c0.041-0.938 0.199-1.444 0.33-1.782 0.154-0.416 0.398-0.795 0.72-1.103 0.311-0.319 0.686-0.563 1.103-0.716 0.338-0.131 0.848-0.289 1.782-0.33 1.013-0.045 1.317-0.056 3.878-0.056 2.566 0 2.869 0.011 3.878 0.056 0.938 0.041 1.444 0.199 1.782 0.33 0.416 0.154 0.795 0.398 1.103 0.716 0.319 0.311 0.563 0.686 0.716 1.103 0.131 0.338 0.289 0.848 0.33 1.782 0.045 1.013 0.056 1.316 0.056 3.878s-0.011 2.862-0.056 3.875z"></path>
<path fill="#f4f4fd" style="fill: var(--color2, #f4f4fd)" d="M16.036 11.070c-2.723 0-4.932 2.209-4.932 4.932s2.209 4.932 4.932 4.932c2.723 0 4.932-2.209 4.932-4.932s-2.209-4.932-4.932-4.932zM16.036 19.201c-1.766 0-3.199-1.433-3.199-3.199s1.433-3.199 3.199-3.199c1.767 0 3.199 1.433 3.199 3.199s-1.433 3.199-3.199 3.199z"></path>
<path fill="#f4f4fd" style="fill: var(--color2, #f4f4fd)" d="M22.314 10.875c0 0.636-0.516 1.151-1.152 1.151s-1.151-0.516-1.151-1.151c0-0.636 0.516-1.151 1.151-1.151s1.152 0.515 1.152 1.151z"></path>
</symbol>
</defs>
</svg>
